<svg width="25" height="25" viewBox="0 0 25 25" fill="none" xmlns="http://www.w3.org/2000/svg">
  <path d="M13.5146 2.60938C13.5146 2.19516 13.1789 1.85938 12.7646 1.85938C12.3504 1.85938 12.0146 2.19516 12.0146 2.60938V5.60938C12.0146 6.02359 12.3504 6.35938 12.7646 6.35938C13.1789 6.35938 13.5146 6.02359 13.5146 5.60938V2.60938Z" fill="#D92D2D"/>
  <path fill-rule="evenodd" clip-rule="evenodd" d="M2.76465 21.8594H4.76465V16.6094C4.76465 12.1911 8.34637 8.60938 12.7646 8.60938C17.1829 8.60938 20.7646 12.1911 20.7646 16.6094V21.8594H22.7646C23.1789 21.8594 23.5146 22.1952 23.5146 22.6094C23.5146 23.0236 23.1789 23.3594 22.7646 23.3594H2.76465C2.35043 23.3594 2.01465 23.0236 2.01465 22.6094C2.01465 22.1952 2.35043 21.8594 2.76465 21.8594ZM13.5146 19.4087C13.963 19.1493 14.2646 18.6646 14.2646 18.1094C14.2646 17.2809 13.5931 16.6094 12.7646 16.6094C11.9362 16.6094 11.2646 17.2809 11.2646 18.1094C11.2646 18.6646 11.5663 19.1493 12.0146 19.4087V21.8594H13.5146V19.4087ZM14.36 11.828C14.5154 11.444 14.9526 11.2588 15.3366 11.4142C16.5276 11.8963 17.4775 12.8462 17.9596 14.0372C18.115 14.4212 17.9298 14.8584 17.5458 15.0138C17.1619 15.1692 16.7246 14.984 16.5692 14.6C16.2395 13.7856 15.5882 13.1343 14.7738 12.8046C14.3898 12.6492 14.2046 12.2119 14.36 11.828Z" fill="#D92D2D"/>
  <path d="M22.295 6.07904C22.5879 6.37194 22.5879 6.84681 22.295 7.13971L20.795 8.63971C20.5021 8.9326 20.0272 8.9326 19.7343 8.63971C19.4414 8.34681 19.4414 7.87194 19.7343 7.57904L21.2343 6.07904C21.5272 5.78615 22.0021 5.78615 22.295 6.07904Z" fill="#D92D2D"/>
  <path d="M4.29498 6.07904C4.00209 5.78615 3.52721 5.78615 3.23432 6.07904C2.94143 6.37194 2.94143 6.84681 3.23432 7.13971L4.73432 8.63971C5.02721 8.9326 5.50209 8.9326 5.79498 8.63971C6.08787 8.34681 6.08787 7.87194 5.79498 7.57904L4.29498 6.07904Z" fill="#D92D2D"/>
</svg>
