<svg width="97" height="96" viewBox="0 0 97 96" fill="none" xmlns="http://www.w3.org/2000/svg">
  <g filter="url(#filter0_d_1056_893)">
    <rect x="20.6152" y="16" width="56" height="56" rx="8" fill="#0035BE"/>
    <path d="M62.2929 45.0028C62.9768 45.1464 63.5239 45.7195 63.6606 46.4362C63.6606 47.1529 63.2503 47.726 62.5664 47.8696L58.1897 48.0118C57.9161 48.8721 57.9161 49.8747 58.1897 50.8786L60.9252 53.744C61.0619 54.1735 61.0619 54.7466 60.9252 55.1761V57.8979C60.9252 58.6159 60.3781 59.0454 59.831 59.0454C59.1471 59.0454 58.1897 58.7582 58.1897 58.1851V55.3197L55.591 53.6004C53.8129 56.18 51.351 57.8992 48.6155 57.8992C45.88 57.8992 43.4181 56.18 41.64 53.6004L39.0413 55.3197V58.1851C39.0413 58.9018 38.0839 59.0454 37.4 59.0454C36.8529 59.0454 36.3058 58.6159 36.3058 58.0429V55.321C36.169 54.8902 36.169 54.3171 36.3058 53.8877L39.0413 51.0209C39.3148 49.7311 39.3148 49.5888 39.0413 48.1554H34.9381C34.2542 48.0118 33.7071 47.2965 33.5703 46.5798C33.7071 45.8631 34.2542 45.29 34.9381 45.1464H39.0413C39.0413 44.4297 38.9045 42.7118 39.0413 42.1374L34.5277 38.8411C33.8439 37.5527 34.1174 37.8386 34.2542 36.4065C34.5277 35.9757 35.2116 35.8321 35.7587 36.1193L39.4516 38.9847C39.7252 38.4116 39.9987 37.5527 40.409 37.1219C40.5458 36.9796 40.6826 36.8346 40.9561 36.6924C41.5032 32.2513 44.2387 28.9551 48.6155 28.9551C52.9923 28.9551 55.7277 32.2513 56.2748 36.6924C56.5484 36.836 56.6852 36.9796 56.8219 37.1219C57.2323 37.6963 57.6426 38.2694 57.9161 38.8425L61.4723 36.2629C61.8826 35.9757 62.5664 35.9757 62.9768 36.5502C63.2503 37.5527 62.9768 38.5553 62.2929 39.272L58.1897 42.1374C58.1897 42.4246 58.0529 42.8541 58.0529 43.1399C58.1897 43.7144 58.1897 44.4297 58.1897 45.0028H62.2929ZM48.6155 31.309C46.1535 31.1653 43.874 33.548 43.6004 35.9839H53.4482C52.9011 33.5493 51.0774 31.1653 48.6155 31.309ZM48.5243 55.5454C50.9862 55.4017 52.6534 54.5264 54.7095 51.6719C55.1791 51.0209 55.6669 46.9436 55.6669 43.9346C55.6669 41.6423 55.5302 39.3499 55.6669 39.4935C55.8037 39.6358 42.2631 39.6358 41.9895 39.4935C41.8528 39.4935 41.9895 41.6423 41.9895 43.9346C41.9895 46.9436 41.8588 50.4683 42.912 51.9058C43.9378 53.744 46.0624 55.4017 48.5243 55.5454V55.5454Z" fill="white"/>
  </g>
  <defs>
    <filter id="filter0_d_1056_893" x="0.615234" y="0" width="96" height="96" filterUnits="userSpaceOnUse" color-interpolation-filters="sRGB">
      <feFlood flood-opacity="0" result="BackgroundImageFix"/>
      <feColorMatrix in="SourceAlpha" type="matrix" values="0 0 0 0 0 0 0 0 0 0 0 0 0 0 0 0 0 0 127 0" result="hardAlpha"/>
      <feOffset dy="4"/>
      <feGaussianBlur stdDeviation="10"/>
      <feComposite in2="hardAlpha" operator="out"/>
      <feColorMatrix type="matrix" values="0 0 0 0 0 0 0 0 0 0.338667 0 0 0 0 0.529167 0 0 0 0.25 0"/>
      <feBlend mode="normal" in2="BackgroundImageFix" result="effect1_dropShadow_1056_893"/>
      <feBlend mode="normal" in="SourceGraphic" in2="effect1_dropShadow_1056_893" result="shape"/>
    </filter>
  </defs>
</svg>
