<svg width="97" height="97" viewBox="0 0 97 97" fill="none" xmlns="http://www.w3.org/2000/svg">
  <g filter="url(#filter0_d_1056_797)">
    <rect x="20.9902" y="16.0596" width="56" height="56" rx="8" fill="#0035BE"/>
    <path fill-rule="evenodd" clip-rule="evenodd" d="M49.1351 28.9364C49.0872 28.936 49.0392 28.9357 48.9912 28.9357C48.9436 28.9357 48.896 28.936 48.8485 28.9364C47.3293 31.5145 46.2133 34.2963 45.528 37.1855H52.4555C51.7703 34.2963 50.6542 31.5145 49.1351 28.9364ZM52.9727 39.9355H45.0108C44.8204 41.2973 44.7239 42.6756 44.7239 44.0607C44.7239 45.4457 44.8204 46.8237 45.0107 48.1853H52.9728C53.1632 46.8237 53.2597 45.4457 53.2597 44.0607C53.2597 42.6756 53.1631 41.2973 52.9727 39.9355ZM55.7473 48.1853C55.9215 46.822 56.0097 45.4445 56.0097 44.0607C56.0097 42.6767 55.9214 41.2989 55.7472 39.9355H63.5428C63.92 41.266 64.1162 42.6532 64.1162 44.0607C64.1162 45.4582 63.9225 46.8461 63.543 48.1853H55.7473ZM52.4557 50.9353H45.5279C46.2131 53.8247 47.3292 56.6068 48.8485 59.1851C48.896 59.1855 48.9436 59.1857 48.9912 59.1857C49.0392 59.1857 49.0872 59.1855 49.1351 59.185C50.6544 56.6068 51.7705 53.8247 52.4557 50.9353ZM52.4932 58.7747C53.7546 56.2865 54.6883 53.6513 55.2753 50.9353H62.4636C61.7447 52.3441 60.8081 53.6338 59.6862 54.7557C58.2817 56.1602 56.6143 57.2743 54.7793 58.0344C54.0364 58.3421 53.2719 58.5894 52.4932 58.7747ZM49.708 61.9214C49.8925 61.9485 50.0794 61.9374 50.2572 61.8908C52.1713 61.7549 54.0538 61.3115 55.8317 60.5751C58.0004 59.6768 59.9709 58.3601 61.6307 56.7003C63.2906 55.0404 64.6073 53.0699 65.5056 50.9012C66.4039 48.7325 66.8662 46.4081 66.8662 44.0607C66.8662 39.32 64.983 34.7734 61.6307 31.4212C58.5782 28.3686 54.5352 26.5341 50.257 26.2306C50.0793 26.1841 49.8925 26.173 49.7081 26.2001C49.4697 26.1905 49.2307 26.1857 48.9912 26.1857C48.752 26.1857 48.5133 26.1905 48.2752 26.2001C48.0911 26.173 47.9045 26.1841 47.727 26.2305C43.4482 26.5337 39.4046 28.3682 36.3517 31.4212C32.9995 34.7734 31.1162 39.32 31.1162 44.0607C31.1162 46.4081 31.5786 48.7325 32.4769 50.9012C33.3752 53.0699 34.6918 55.0404 36.3517 56.7003C38.0115 58.3601 39.982 59.6768 42.1507 60.5751C43.9291 61.3117 45.8122 61.7552 47.7268 61.891C47.9044 61.9374 48.0911 61.9484 48.2753 61.9214C48.5136 61.9309 48.7523 61.9357 48.9912 61.9357C49.2304 61.9357 49.4694 61.9309 49.708 61.9214ZM52.4932 29.3467C55.1946 29.9897 57.6905 31.3701 59.6862 33.3657C60.8168 34.4963 61.7499 35.7874 62.4633 37.1855H55.2751C54.6881 34.4697 53.7544 31.8347 52.4932 29.3467ZM45.4905 58.775C44.2291 56.2868 43.2953 53.6514 42.7083 50.9353H35.5188C36.2377 52.3441 37.1743 53.6338 38.2962 54.7557C39.7007 56.1602 41.3681 57.2743 43.2031 58.0344C43.9465 58.3423 44.7114 58.5897 45.4905 58.775ZM41.9739 44.0607C41.9739 42.6767 42.0621 41.2989 42.2364 39.9355H34.4396C34.0624 41.266 33.8662 42.6532 33.8662 44.0607C33.8662 45.4582 34.0599 46.8461 34.4394 48.1853H42.2363C42.0621 46.822 41.9739 45.4445 41.9739 44.0607ZM42.7084 37.1855C43.2955 34.4696 44.2292 31.8344 45.4906 29.3464C42.7886 29.9892 40.2922 31.3698 38.2962 33.3657C37.1657 34.4963 36.2326 35.7874 35.5191 37.1855H42.7084Z" fill="#F6FBFF"/>
  </g>
  <defs>
    <filter id="filter0_d_1056_797" x="0.990234" y="0.0595703" width="96" height="96" filterUnits="userSpaceOnUse" color-interpolation-filters="sRGB">
      <feFlood flood-opacity="0" result="BackgroundImageFix"/>
      <feColorMatrix in="SourceAlpha" type="matrix" values="0 0 0 0 0 0 0 0 0 0 0 0 0 0 0 0 0 0 127 0" result="hardAlpha"/>
      <feOffset dy="4"/>
      <feGaussianBlur stdDeviation="10"/>
      <feComposite in2="hardAlpha" operator="out"/>
      <feColorMatrix type="matrix" values="0 0 0 0 0 0 0 0 0 0.338667 0 0 0 0 0.529167 0 0 0 0.25 0"/>
      <feBlend mode="normal" in2="BackgroundImageFix" result="effect1_dropShadow_1056_797"/>
      <feBlend mode="normal" in="SourceGraphic" in2="effect1_dropShadow_1056_797" result="shape"/>
    </filter>
  </defs>
</svg>
