<svg width="96" height="97" viewBox="0 0 96 97" fill="none" xmlns="http://www.w3.org/2000/svg">
  <g filter="url(#filter0_d_934_1963)">
    <rect x="20" y="16.082" width="56" height="56" rx="8" fill="#F6FBFF"/>
    <path fill-rule="evenodd" clip-rule="evenodd" d="M48 26.2072C47.7607 26.2072 47.522 26.212 47.2838 26.2216C47.0997 26.1945 46.913 26.2055 46.7354 26.252C42.4568 26.5552 38.4134 28.3898 35.3605 31.4427C32.0083 34.7949 30.125 39.3415 30.125 44.0822C30.125 46.4296 30.5874 48.754 31.4857 50.9227C32.384 53.0914 33.7006 55.0619 35.3605 56.7217C37.0203 58.3816 38.9908 59.6983 41.1595 60.5966C42.9378 61.3331 44.8208 61.7766 46.7352 61.9124C46.9129 61.9589 47.0997 61.9699 47.2839 61.9429C47.5223 61.9524 47.761 61.9572 48 61.9572C48.2391 61.9572 48.4779 61.9524 48.7164 61.9429C48.9007 61.9699 49.0875 61.9589 49.2653 61.9124C51.1796 61.7765 53.0623 61.3331 54.8405 60.5966C57.0092 59.6983 58.9797 58.3816 60.6395 56.7217C62.2994 55.0619 63.616 53.0914 64.5143 50.9227C65.4127 48.754 65.875 46.4296 65.875 44.0822C65.875 39.3415 63.9917 34.7949 60.6395 31.4427C57.5868 28.3899 53.5435 26.5554 49.2651 26.252C49.0874 26.2055 48.9007 26.1945 48.7165 26.2216C48.4782 26.212 48.2394 26.2072 48 26.2072ZM48.1434 28.9579C48.0956 28.9574 48.0478 28.9572 48 28.9572C47.9523 28.9572 47.9047 28.9574 47.857 28.9579C46.3378 31.536 45.2218 34.318 44.5365 37.2072H51.4638C50.7786 34.318 49.6625 31.536 48.1434 28.9579ZM51.981 39.9572H44.0194C43.829 41.319 43.7324 42.6971 43.7324 44.0822C43.7324 45.4673 43.829 46.8455 44.0194 48.2072H51.981C52.1714 46.8455 52.268 45.4673 52.268 44.0822C52.268 42.6971 52.1714 41.319 51.981 39.9572ZM54.7555 48.2072C54.9297 46.8438 55.018 45.4662 55.018 44.0822C55.018 42.6982 54.9297 41.3206 54.7555 39.9572H62.5517C62.9288 41.2876 63.125 42.6748 63.125 44.0822C63.125 45.4799 62.9313 46.8679 62.5516 48.2072H54.7555ZM51.4638 50.9572H44.5365C45.2218 53.8465 46.3378 56.6284 47.857 59.2065C47.9047 59.207 47.9523 59.2072 48 59.2072C48.0478 59.2072 48.0956 59.207 48.1434 59.2065C49.6625 56.6284 50.7786 53.8465 51.4638 50.9572ZM51.5014 58.7964C52.7627 56.3083 53.6964 53.6731 54.2834 50.9572H61.4722C60.7533 52.3659 59.8168 53.6554 58.695 54.7772C57.2905 56.1817 55.6231 57.2958 53.7881 58.0559C53.045 58.3637 52.2802 58.611 51.5014 58.7964ZM54.2834 37.2072C53.6964 34.4913 52.7627 31.8561 51.5013 29.368C54.203 30.011 56.6992 31.3914 58.695 33.3872C59.8256 34.5179 60.7588 35.809 61.4722 37.2072H54.2834ZM44.4991 58.7965C43.2377 56.3083 42.304 53.6732 41.7169 50.9572H34.5278C35.2467 52.3659 36.1832 53.6554 37.305 54.7772C38.7095 56.1817 40.3769 57.2958 42.2119 58.0559C42.9552 58.3638 43.72 58.6111 44.4991 58.7965ZM40.9824 44.0822C40.9824 42.6982 41.0707 41.3206 41.2449 39.9572H33.4483C33.0712 41.2876 32.875 42.6748 32.875 44.0822C32.875 45.4799 33.0687 46.8679 33.4484 48.2072H41.2449C41.0707 46.8438 40.9824 45.4662 40.9824 44.0822ZM41.7169 37.2072C42.304 34.4912 43.2377 31.8561 44.4991 29.3679C41.7972 30.0108 39.3009 31.3913 37.305 33.3872C36.1744 34.5179 35.2412 35.809 34.5278 37.2072H41.7169Z" fill="#2C3E50"/>
  </g>
  <defs>
    <filter id="filter0_d_934_1963" x="0" y="0.0820312" width="96" height="96" filterUnits="userSpaceOnUse" color-interpolation-filters="sRGB">
      <feFlood flood-opacity="0" result="BackgroundImageFix"/>
      <feColorMatrix in="SourceAlpha" type="matrix" values="0 0 0 0 0 0 0 0 0 0 0 0 0 0 0 0 0 0 127 0" result="hardAlpha"/>
      <feOffset dy="4"/>
      <feGaussianBlur stdDeviation="10"/>
      <feComposite in2="hardAlpha" operator="out"/>
      <feColorMatrix type="matrix" values="0 0 0 0 0 0 0 0 0 0.338667 0 0 0 0 0.529167 0 0 0 0.25 0"/>
      <feBlend mode="normal" in2="BackgroundImageFix" result="effect1_dropShadow_934_1963"/>
      <feBlend mode="normal" in="SourceGraphic" in2="effect1_dropShadow_934_1963" result="shape"/>
    </filter>
  </defs>
</svg>
